<?xml version="1.0" encoding="utf-8" standalone="no"?>
<!DOCTYPE svg PUBLIC "-//W3C//DTD SVG 1.1//EN"
  "http://www.w3.org/Graphics/SVG/1.1/DTD/svg11.dtd">
<svg xmlns:xlink="http://www.w3.org/1999/xlink" width="347.04pt" height="362.158125pt" viewBox="0 0 347.04 362.158125" xmlns="http://www.w3.org/2000/svg" version="1.1">
 <metadata>
  <rdf:RDF xmlns:dc="http://purl.org/dc/elements/1.1/" xmlns:cc="http://creativecommons.org/ns#" xmlns:rdf="http://www.w3.org/1999/02/22-rdf-syntax-ns#">
   <cc:Work>
    <dc:type rdf:resource="http://purl.org/dc/dcmitype/StillImage"/>
    <dc:date>2026-04-25T19:08:35.353156</dc:date>
    <dc:format>image/svg+xml</dc:format>
    <dc:creator>
     <cc:Agent>
      <dc:title>Matplotlib v3.10.8, https://matplotlib.org/</dc:title>
     </cc:Agent>
    </dc:creator>
   </cc:Work>
  </rdf:RDF>
 </metadata>
 <defs>
  <style type="text/css">*{stroke-linejoin: round; stroke-linecap: butt}</style>
 </defs>
 <g id="figure_1">
  <g id="patch_1">
   <path d="M 0 362.158125 
L 347.04 362.158125 
L 347.04 -0 
L 0 -0 
z
" style="fill: #ffffff"/>
  </g>
  <g id="patch_2">
   <path d="M 7.2 354.958125 
L 339.84 354.958125 
L 339.84 22.318125 
L 7.2 22.318125 
z
" style="fill: #ffffff"/>
  </g>
  <g id="axes_1">
   <g id="line2d_1">
    <path d="M 142.521874 148.685388 
L 150.345611 213.560793 
" clip-path="url(#p76ae569377)" style="fill: none; stroke: #808080; stroke-width: 2; stroke-linecap: square"/>
   </g>
   <g id="line2d_2">
    <path d="M 150.345611 213.560793 
L 175.06735 205.030479 
" clip-path="url(#p76ae569377)" style="fill: none; stroke: #808080; stroke-width: 2; stroke-linecap: square"/>
   </g>
   <g id="line2d_3">
    <path d="M 175.06735 205.030479 
L 242.283713 157.517408 
" clip-path="url(#p76ae569377)" style="fill: none; stroke: #808080; stroke-width: 2; stroke-linecap: square"/>
   </g>
   <g id="line2d_4">
    <path d="M 142.521874 148.685388 
L 186.317341 112.743322 
" clip-path="url(#p76ae569377)" style="fill: none; stroke: #808080; stroke-width: 2; stroke-linecap: square"/>
   </g>
   <g id="line2d_5">
    <path d="M 142.521874 148.685388 
L 111.309294 125.175359 
" clip-path="url(#p76ae569377)" style="fill: none; stroke: #808080; stroke-width: 2; stroke-linecap: square"/>
   </g>
   <g id="line2d_6">
    <path d="M 142.521874 148.685388 
L 122.455418 159.730006 
" clip-path="url(#p76ae569377)" style="fill: none; stroke: #808080; stroke-width: 2; stroke-linecap: square"/>
   </g>
   <g id="line2d_7">
    <path d="M 150.345611 213.560793 
L 181.647037 232.986797 
" clip-path="url(#p76ae569377)" style="fill: none; stroke: #808080; stroke-width: 2; stroke-linecap: square"/>
   </g>
   <g id="line2d_8">
    <path d="M 150.345611 213.560793 
L 103.962618 252.652382 
" clip-path="url(#p76ae569377)" style="fill: none; stroke: #808080; stroke-width: 2; stroke-linecap: square"/>
   </g>
   <g id="line2d_9">
    <path d="M 175.06735 205.030479 
L 141.418344 183.985369 
" clip-path="url(#p76ae569377)" style="fill: none; stroke: #808080; stroke-width: 2; stroke-linecap: square"/>
   </g>
   <g id="line2d_10">
    <path d="M 175.06735 205.030479 
L 174.930117 258.387806 
" clip-path="url(#p76ae569377)" style="fill: none; stroke: #808080; stroke-width: 2; stroke-linecap: square"/>
   </g>
   <g id="line2d_11">
    <path d="M 242.283713 157.517408 
L 261.492738 155.776649 
" clip-path="url(#p76ae569377)" style="fill: none; stroke: #808080; stroke-width: 2; stroke-linecap: square"/>
   </g>
   <g id="line2d_12">
    <path d="M 242.283713 157.517408 
L 243.159562 104.899572 
" clip-path="url(#p76ae569377)" style="fill: none; stroke: #808080; stroke-width: 2; stroke-linecap: square"/>
   </g>
   <g id="line2d_13">
    <path d="M 242.283713 157.517408 
L 272.7891 176.368909 
" clip-path="url(#p76ae569377)" style="fill: none; stroke: #808080; stroke-width: 2; stroke-linecap: square"/>
   </g>
   <g id="Path3DCollection_1">
    <defs>
     <path id="mb5bdccec28" d="M 0 8.660254 
C 2.296726 8.660254 4.499694 7.747755 6.123724 6.123724 
C 7.747755 4.499694 8.660254 2.296726 8.660254 0 
C 8.660254 -2.296726 7.747755 -4.499694 6.123724 -6.123724 
C 4.499694 -7.747755 2.296726 -8.660254 0 -8.660254 
C -2.296726 -8.660254 -4.499694 -7.747755 -6.123724 -6.123724 
C -7.747755 -4.499694 -8.660254 -2.296726 -8.660254 0 
C -8.660254 2.296726 -7.747755 4.499694 -6.123724 6.123724 
C -4.499694 7.747755 -2.296726 8.660254 0 8.660254 
z
" style="stroke: #d3d3d3"/>
    </defs>
    <g clip-path="url(#p76ae569377)">
     <use xlink:href="#mb5bdccec28" x="122.455418" y="159.730006" style="fill: #d3d3d3; stroke: #d3d3d3"/>
    </g>
   </g>
   <g id="text_1">
    <!-- C -->
    <g style="fill: #ffffff" transform="translate(139.586249 150.892888) scale(0.08 -0.08)">
     <defs>
      <path id="DejaVuSans-Bold-43" d="M 4288 256 
Q 3956 84 3597 -3 
Q 3238 -91 2847 -91 
Q 1681 -91 1000 561 
Q 319 1213 319 2328 
Q 319 3447 1000 4098 
Q 1681 4750 2847 4750 
Q 3238 4750 3597 4662 
Q 3956 4575 4288 4403 
L 4288 3438 
Q 3953 3666 3628 3772 
Q 3303 3878 2944 3878 
Q 2300 3878 1931 3465 
Q 1563 3053 1563 2328 
Q 1563 1606 1931 1193 
Q 2300 781 2944 781 
Q 3303 781 3628 887 
Q 3953 994 4288 1222 
L 4288 256 
z
" transform="scale(0.015625)"/>
     </defs>
     <use xlink:href="#DejaVuSans-Bold-43"/>
    </g>
   </g>
   <g id="text_2">
    <!-- C -->
    <g style="fill: #ffffff" transform="translate(147.409986 215.768293) scale(0.08 -0.08)">
     <use xlink:href="#DejaVuSans-Bold-43"/>
    </g>
   </g>
   <g id="text_3">
    <!-- C -->
    <g style="fill: #ffffff" transform="translate(172.131725 207.237979) scale(0.08 -0.08)">
     <use xlink:href="#DejaVuSans-Bold-43"/>
    </g>
   </g>
   <g id="text_4">
    <!-- C -->
    <g style="fill: #ffffff" transform="translate(239.348088 159.724908) scale(0.08 -0.08)">
     <use xlink:href="#DejaVuSans-Bold-43"/>
    </g>
   </g>
   <g id="text_5">
    <!-- H -->
    <g style="fill: #ffffff" transform="translate(182.969841 114.950822) scale(0.08 -0.08)">
     <defs>
      <path id="DejaVuSans-Bold-48" d="M 588 4666 
L 1791 4666 
L 1791 2888 
L 3566 2888 
L 3566 4666 
L 4769 4666 
L 4769 0 
L 3566 0 
L 3566 1978 
L 1791 1978 
L 1791 0 
L 588 0 
L 588 4666 
z
" transform="scale(0.015625)"/>
     </defs>
     <use xlink:href="#DejaVuSans-Bold-48"/>
    </g>
   </g>
   <g id="text_6">
    <!-- H -->
    <g style="fill: #ffffff" transform="translate(107.961794 127.382859) scale(0.08 -0.08)">
     <use xlink:href="#DejaVuSans-Bold-48"/>
    </g>
   </g>
   <g id="text_7">
    <!-- H -->
    <g style="fill: #ffffff" transform="translate(119.107918 161.937506) scale(0.08 -0.08)">
     <use xlink:href="#DejaVuSans-Bold-48"/>
    </g>
   </g>
   <g id="text_8">
    <!-- H -->
    <g style="fill: #ffffff" transform="translate(178.299537 235.194297) scale(0.08 -0.08)">
     <use xlink:href="#DejaVuSans-Bold-48"/>
    </g>
   </g>
   <g id="text_9">
    <!-- H -->
    <g style="fill: #ffffff" transform="translate(100.615118 254.859882) scale(0.08 -0.08)">
     <use xlink:href="#DejaVuSans-Bold-48"/>
    </g>
   </g>
   <g id="text_10">
    <!-- H -->
    <g style="fill: #ffffff" transform="translate(138.070844 186.192869) scale(0.08 -0.08)">
     <use xlink:href="#DejaVuSans-Bold-48"/>
    </g>
   </g>
   <g id="text_11">
    <!-- H -->
    <g style="fill: #ffffff" transform="translate(171.582617 260.595306) scale(0.08 -0.08)">
     <use xlink:href="#DejaVuSans-Bold-48"/>
    </g>
   </g>
   <g id="text_12">
    <!-- H -->
    <g style="fill: #ffffff" transform="translate(258.145238 157.984149) scale(0.08 -0.08)">
     <use xlink:href="#DejaVuSans-Bold-48"/>
    </g>
   </g>
   <g id="text_13">
    <!-- H -->
    <g style="fill: #ffffff" transform="translate(239.812062 107.107072) scale(0.08 -0.08)">
     <use xlink:href="#DejaVuSans-Bold-48"/>
    </g>
   </g>
   <g id="text_14">
    <!-- H -->
    <g style="fill: #ffffff" transform="translate(269.4416 178.576409) scale(0.08 -0.08)">
     <use xlink:href="#DejaVuSans-Bold-48"/>
    </g>
   </g>
   <g id="text_15">
    <!-- 3D structure : CCCC -->
    <g transform="translate(113.357813 16.318125) scale(0.12 -0.12)">
     <defs>
      <path id="DejaVuSans-33" d="M 2597 2516 
Q 3050 2419 3304 2112 
Q 3559 1806 3559 1356 
Q 3559 666 3084 287 
Q 2609 -91 1734 -91 
Q 1441 -91 1130 -33 
Q 819 25 488 141 
L 488 750 
Q 750 597 1062 519 
Q 1375 441 1716 441 
Q 2309 441 2620 675 
Q 2931 909 2931 1356 
Q 2931 1769 2642 2001 
Q 2353 2234 1838 2234 
L 1294 2234 
L 1294 2753 
L 1863 2753 
Q 2328 2753 2575 2939 
Q 2822 3125 2822 3475 
Q 2822 3834 2567 4026 
Q 2313 4219 1838 4219 
Q 1578 4219 1281 4162 
Q 984 4106 628 3988 
L 628 4550 
Q 988 4650 1302 4700 
Q 1616 4750 1894 4750 
Q 2613 4750 3031 4423 
Q 3450 4097 3450 3541 
Q 3450 3153 3228 2886 
Q 3006 2619 2597 2516 
z
" transform="scale(0.015625)"/>
      <path id="DejaVuSans-44" d="M 1259 4147 
L 1259 519 
L 2022 519 
Q 2988 519 3436 956 
Q 3884 1394 3884 2338 
Q 3884 3275 3436 3711 
Q 2988 4147 2022 4147 
L 1259 4147 
z
M 628 4666 
L 1925 4666 
Q 3281 4666 3915 4102 
Q 4550 3538 4550 2338 
Q 4550 1131 3912 565 
Q 3275 0 1925 0 
L 628 0 
L 628 4666 
z
" transform="scale(0.015625)"/>
      <path id="DejaVuSans-20" transform="scale(0.015625)"/>
      <path id="DejaVuSans-73" d="M 2834 3397 
L 2834 2853 
Q 2591 2978 2328 3040 
Q 2066 3103 1784 3103 
Q 1356 3103 1142 2972 
Q 928 2841 928 2578 
Q 928 2378 1081 2264 
Q 1234 2150 1697 2047 
L 1894 2003 
Q 2506 1872 2764 1633 
Q 3022 1394 3022 966 
Q 3022 478 2636 193 
Q 2250 -91 1575 -91 
Q 1294 -91 989 -36 
Q 684 19 347 128 
L 347 722 
Q 666 556 975 473 
Q 1284 391 1588 391 
Q 1994 391 2212 530 
Q 2431 669 2431 922 
Q 2431 1156 2273 1281 
Q 2116 1406 1581 1522 
L 1381 1569 
Q 847 1681 609 1914 
Q 372 2147 372 2553 
Q 372 3047 722 3315 
Q 1072 3584 1716 3584 
Q 2034 3584 2315 3537 
Q 2597 3491 2834 3397 
z
" transform="scale(0.015625)"/>
      <path id="DejaVuSans-74" d="M 1172 4494 
L 1172 3500 
L 2356 3500 
L 2356 3053 
L 1172 3053 
L 1172 1153 
Q 1172 725 1289 603 
Q 1406 481 1766 481 
L 2356 481 
L 2356 0 
L 1766 0 
Q 1100 0 847 248 
Q 594 497 594 1153 
L 594 3053 
L 172 3053 
L 172 3500 
L 594 3500 
L 594 4494 
L 1172 4494 
z
" transform="scale(0.015625)"/>
      <path id="DejaVuSans-72" d="M 2631 2963 
Q 2534 3019 2420 3045 
Q 2306 3072 2169 3072 
Q 1681 3072 1420 2755 
Q 1159 2438 1159 1844 
L 1159 0 
L 581 0 
L 581 3500 
L 1159 3500 
L 1159 2956 
Q 1341 3275 1631 3429 
Q 1922 3584 2338 3584 
Q 2397 3584 2469 3576 
Q 2541 3569 2628 3553 
L 2631 2963 
z
" transform="scale(0.015625)"/>
      <path id="DejaVuSans-75" d="M 544 1381 
L 544 3500 
L 1119 3500 
L 1119 1403 
Q 1119 906 1312 657 
Q 1506 409 1894 409 
Q 2359 409 2629 706 
Q 2900 1003 2900 1516 
L 2900 3500 
L 3475 3500 
L 3475 0 
L 2900 0 
L 2900 538 
Q 2691 219 2414 64 
Q 2138 -91 1772 -91 
Q 1169 -91 856 284 
Q 544 659 544 1381 
z
M 1991 3584 
L 1991 3584 
z
" transform="scale(0.015625)"/>
      <path id="DejaVuSans-63" d="M 3122 3366 
L 3122 2828 
Q 2878 2963 2633 3030 
Q 2388 3097 2138 3097 
Q 1578 3097 1268 2742 
Q 959 2388 959 1747 
Q 959 1106 1268 751 
Q 1578 397 2138 397 
Q 2388 397 2633 464 
Q 2878 531 3122 666 
L 3122 134 
Q 2881 22 2623 -34 
Q 2366 -91 2075 -91 
Q 1284 -91 818 406 
Q 353 903 353 1747 
Q 353 2603 823 3093 
Q 1294 3584 2113 3584 
Q 2378 3584 2631 3529 
Q 2884 3475 3122 3366 
z
" transform="scale(0.015625)"/>
      <path id="DejaVuSans-65" d="M 3597 1894 
L 3597 1613 
L 953 1613 
Q 991 1019 1311 708 
Q 1631 397 2203 397 
Q 2534 397 2845 478 
Q 3156 559 3463 722 
L 3463 178 
Q 3153 47 2828 -22 
Q 2503 -91 2169 -91 
Q 1331 -91 842 396 
Q 353 884 353 1716 
Q 353 2575 817 3079 
Q 1281 3584 2069 3584 
Q 2775 3584 3186 3129 
Q 3597 2675 3597 1894 
z
M 3022 2063 
Q 3016 2534 2758 2815 
Q 2500 3097 2075 3097 
Q 1594 3097 1305 2825 
Q 1016 2553 972 2059 
L 3022 2063 
z
" transform="scale(0.015625)"/>
      <path id="DejaVuSans-3a" d="M 750 794 
L 1409 794 
L 1409 0 
L 750 0 
L 750 794 
z
M 750 3309 
L 1409 3309 
L 1409 2516 
L 750 2516 
L 750 3309 
z
" transform="scale(0.015625)"/>
      <path id="DejaVuSans-43" d="M 4122 4306 
L 4122 3641 
Q 3803 3938 3442 4084 
Q 3081 4231 2675 4231 
Q 1875 4231 1450 3742 
Q 1025 3253 1025 2328 
Q 1025 1406 1450 917 
Q 1875 428 2675 428 
Q 3081 428 3442 575 
Q 3803 722 4122 1019 
L 4122 359 
Q 3791 134 3420 21 
Q 3050 -91 2638 -91 
Q 1578 -91 968 557 
Q 359 1206 359 2328 
Q 359 3453 968 4101 
Q 1578 4750 2638 4750 
Q 3056 4750 3426 4639 
Q 3797 4528 4122 4306 
z
" transform="scale(0.015625)"/>
     </defs>
     <use xlink:href="#DejaVuSans-33"/>
     <use xlink:href="#DejaVuSans-44" transform="translate(63.623047 0)"/>
     <use xlink:href="#DejaVuSans-20" transform="translate(140.625 0)"/>
     <use xlink:href="#DejaVuSans-73" transform="translate(172.412109 0)"/>
     <use xlink:href="#DejaVuSans-74" transform="translate(224.511719 0)"/>
     <use xlink:href="#DejaVuSans-72" transform="translate(263.720703 0)"/>
     <use xlink:href="#DejaVuSans-75" transform="translate(304.833984 0)"/>
     <use xlink:href="#DejaVuSans-63" transform="translate(368.212891 0)"/>
     <use xlink:href="#DejaVuSans-74" transform="translate(423.193359 0)"/>
     <use xlink:href="#DejaVuSans-75" transform="translate(462.402344 0)"/>
     <use xlink:href="#DejaVuSans-72" transform="translate(525.78125 0)"/>
     <use xlink:href="#DejaVuSans-65" transform="translate(564.644531 0)"/>
     <use xlink:href="#DejaVuSans-20" transform="translate(626.167969 0)"/>
     <use xlink:href="#DejaVuSans-3a" transform="translate(657.955078 0)"/>
     <use xlink:href="#DejaVuSans-20" transform="translate(691.646484 0)"/>
     <use xlink:href="#DejaVuSans-43" transform="translate(723.433594 0)"/>
     <use xlink:href="#DejaVuSans-43" transform="translate(793.257812 0)"/>
     <use xlink:href="#DejaVuSans-43" transform="translate(863.082031 0)"/>
     <use xlink:href="#DejaVuSans-43" transform="translate(932.90625 0)"/>
    </g>
   </g>
   <g id="Path3DCollection_2">
    <g clip-path="url(#p76ae569377)">
     <use xlink:href="#mb5bdccec28" x="186.317341" y="112.743322" style="fill: #d3d3d3; stroke: #d3d3d3"/>
    </g>
   </g>
   <g id="Path3DCollection_3">
    <g clip-path="url(#p76ae569377)">
     <use xlink:href="#mb5bdccec28" x="181.647037" y="232.986797" style="fill: #d3d3d3; stroke: #d3d3d3"/>
    </g>
   </g>
   <g id="Path3DCollection_4">
    <defs>
     <path id="ma353ff617a" d="M 0 8.660254 
C 2.296726 8.660254 4.499694 7.747755 6.123724 6.123724 
C 7.747755 4.499694 8.660254 2.296726 8.660254 0 
C 8.660254 -2.296726 7.747755 -4.499694 6.123724 -6.123724 
C 4.499694 -7.747755 2.296726 -8.660254 0 -8.660254 
C -2.296726 -8.660254 -4.499694 -7.747755 -6.123724 -6.123724 
C -7.747755 -4.499694 -8.660254 -2.296726 -8.660254 0 
C -8.660254 2.296726 -7.747755 4.499694 -6.123724 6.123724 
C -4.499694 7.747755 -2.296726 8.660254 0 8.660254 
z
" style="stroke: #000000"/>
    </defs>
    <g clip-path="url(#p76ae569377)">
     <use xlink:href="#ma353ff617a" x="142.521874" y="148.685388" style="stroke: #000000"/>
    </g>
   </g>
   <g id="Path3DCollection_5">
    <g clip-path="url(#p76ae569377)">
     <use xlink:href="#mb5bdccec28" x="272.7891" y="176.368909" style="fill: #d3d3d3; stroke: #d3d3d3"/>
    </g>
   </g>
   <g id="Path3DCollection_6">
    <g clip-path="url(#p76ae569377)">
     <use xlink:href="#ma353ff617a" x="150.345611" y="213.560793" style="stroke: #000000"/>
    </g>
   </g>
   <g id="Path3DCollection_7">
    <g clip-path="url(#p76ae569377)">
     <use xlink:href="#mb5bdccec28" x="111.309294" y="125.175359" style="fill: #d3d3d3; stroke: #d3d3d3"/>
    </g>
   </g>
   <g id="Path3DCollection_8">
    <g clip-path="url(#p76ae569377)">
     <use xlink:href="#mb5bdccec28" x="243.159562" y="104.899572" style="fill: #d3d3d3; stroke: #d3d3d3"/>
    </g>
   </g>
   <g id="Path3DCollection_9">
    <g clip-path="url(#p76ae569377)">
     <use xlink:href="#mb5bdccec28" x="103.962618" y="252.652382" style="fill: #d3d3d3; stroke: #d3d3d3"/>
    </g>
   </g>
   <g id="Path3DCollection_10">
    <g clip-path="url(#p76ae569377)">
     <use xlink:href="#ma353ff617a" x="242.283713" y="157.517408" style="stroke: #000000"/>
    </g>
   </g>
   <g id="Path3DCollection_11">
    <g clip-path="url(#p76ae569377)">
     <use xlink:href="#ma353ff617a" x="175.06735" y="205.030479" style="stroke: #000000"/>
    </g>
   </g>
   <g id="Path3DCollection_12">
    <g clip-path="url(#p76ae569377)">
     <use xlink:href="#mb5bdccec28" x="261.492738" y="155.776649" style="fill: #d3d3d3; stroke: #d3d3d3"/>
    </g>
   </g>
   <g id="Path3DCollection_13">
    <g clip-path="url(#p76ae569377)">
     <use xlink:href="#mb5bdccec28" x="174.930117" y="258.387806" style="fill: #d3d3d3; stroke: #d3d3d3"/>
    </g>
   </g>
   <g id="Path3DCollection_14">
    <g clip-path="url(#p76ae569377)">
     <use xlink:href="#mb5bdccec28" x="141.418344" y="183.985369" style="fill: #d3d3d3; stroke: #d3d3d3"/>
    </g>
   </g>
  </g>
 </g>
 <defs>
  <clipPath id="p76ae569377">
   <rect x="7.2" y="22.318125" width="332.64" height="332.64"/>
  </clipPath>
 </defs>
</svg>
